<svg xmlns="http://www.w3.org/2000/svg" viewBox="0 0 640 300" width="640" height="300" font-family="Helvetica, Arial, sans-serif" font-size="11" fill="#53647c">
<rect width="640" height="300" fill="#ffffff"/>
<text x="56" y="20" font-size="13" font-weight="bold" fill="#071326">jeno-lora-v2 training loss (Qwen3-4B-Instruct-2507, QLoRA r=16, 92 examples, 1 epoch)</text>
<line x1="56" x2="620" y1="256.0" y2="256.0" stroke="#dbe5f1"/><text x="48" y="260.0" text-anchor="end">1.8</text><line x1="56" x2="620" y1="212.0" y2="212.0" stroke="#dbe5f1"/><text x="48" y="216.0" text-anchor="end">2.0</text><line x1="56" x2="620" y1="168.0" y2="168.0" stroke="#dbe5f1"/><text x="48" y="172.0" text-anchor="end">2.2</text><line x1="56" x2="620" y1="124.0" y2="124.0" stroke="#dbe5f1"/><text x="48" y="128.0" text-anchor="end">2.4</text><line x1="56" x2="620" y1="80.0" y2="80.0" stroke="#dbe5f1"/><text x="48" y="84.0" text-anchor="end">2.6</text><line x1="56" x2="620" y1="36.0" y2="36.0" stroke="#dbe5f1"/><text x="48" y="40.0" text-anchor="end">2.8</text><text x="56.0" y="274" text-anchor="middle">1</text><text x="107.3" y="274" text-anchor="middle">2</text><text x="158.5" y="274" text-anchor="middle">3</text><text x="209.8" y="274" text-anchor="middle">4</text><text x="261.1" y="274" text-anchor="middle">5</text><text x="312.4" y="274" text-anchor="middle">6</text><text x="363.6" y="274" text-anchor="middle">7</text><text x="414.9" y="274" text-anchor="middle">8</text><text x="466.2" y="274" text-anchor="middle">9</text><text x="517.5" y="274" text-anchor="middle">10</text><text x="568.7" y="274" text-anchor="middle">11</text><text x="620.0" y="274" text-anchor="middle">12</text>
<path d="M56.0,55.9 L107.3,67.9 L158.5,90.7 L209.8,113.8 L261.1,97.3 L312.4,142.9 L363.6,192.6 L414.9,192.9 L466.2,180.1 L517.5,209.1 L568.7,236.5 L620.0,216.9" fill="none" stroke="#2457d6" stroke-width="2.2"/><circle cx="56.0" cy="55.9" r="3.5" fill="#2457d6"/><circle cx="107.3" cy="67.9" r="3.5" fill="#2457d6"/><circle cx="158.5" cy="90.7" r="3.5" fill="#2457d6"/><circle cx="209.8" cy="113.8" r="3.5" fill="#2457d6"/><circle cx="261.1" cy="97.3" r="3.5" fill="#2457d6"/><circle cx="312.4" cy="142.9" r="3.5" fill="#2457d6"/><circle cx="363.6" cy="192.6" r="3.5" fill="#2457d6"/><circle cx="414.9" cy="192.9" r="3.5" fill="#2457d6"/><circle cx="466.2" cy="180.1" r="3.5" fill="#2457d6"/><circle cx="517.5" cy="209.1" r="3.5" fill="#2457d6"/><circle cx="568.7" cy="236.5" r="3.5" fill="#2457d6"/><circle cx="620.0" cy="216.9" r="3.5" fill="#2457d6"/>
<text x="338.0" y="292" text-anchor="middle">optimizer step</text>
<text x="14" y="146.0" transform="rotate(-90 14 146.0)" text-anchor="middle">train loss</text>
</svg>